<svg width="38" height="55" viewBox="0 0 38 55" fill="none" xmlns="http://www.w3.org/2000/svg">
<path d="M21.5 3C21.5 1.61929 20.3807 0.5 19 0.5C17.6193 0.5 16.5 1.61929 16.5 3H21.5ZM17.2322 53.7678C18.2085 54.7441 19.7915 54.7441 20.7678 53.7678L36.6777 37.8579C37.654 36.8816 37.654 35.2986 36.6777 34.3223C35.7014 33.346 34.1184 33.346 33.1421 34.3223L19 48.4645L4.85786 34.3223C3.88155 33.346 2.29864 33.346 1.32233 34.3223C0.34602 35.2986 0.34602 36.8816 1.32233 37.8579L17.2322 53.7678ZM16.5 3L16.5 52H21.5L21.5 3H16.5Z" fill="black"/>
</svg>
